# xmcd CD database file
#
# Track frame offsets:
#	150
#	14820
#	29565
#	46302
#	60782
#	91750
#	105235
#	121812
#	143910
#	160350
#
# Disc length: 2510 seconds
#
# Revision: 0
# Processed by: cddbd v1.5.1PL0 Copyright (c) Steve Scherf et al.
# Submitted via: cdripper 1.0.7
#
DISCID=7809cc0a
DTITLE=Ron Thompson - Just Like a Devil
DYEAR=1990
DGENRE=Blues
TTITLE0=Just Like a Devil
TTITLE1=Walkin' Blues
TTITLE2=Honest I Do
TTITLE3=Little Red Rooster
TTITLE4=Pin-Eyed Woman
TTITLE5=Terraplane Blues
TTITLE6=Rollin' and Tumblin'
TTITLE7=Shotgun Blues
TTITLE8=Stop Breakin' Down
TTITLE9=Hip Shake
EXTD=YEAR: 1990
EXTT0=
EXTT1=
EXTT2=
EXTT3=
EXTT4=
EXTT5=
EXTT6=
EXTT7=
EXTT8=
EXTT9=
PLAYORDER=
